<svg width="16" height="16" viewBox="0 0 16 16" fill="none" xmlns="http://www.w3.org/2000/svg">
<path d="M12.6875 4.84082C11.4908 3.16375 9.77556 3.08389 9.13733 3.08389L9.32379 0.588257C11.5576 0.588257 13.8313 1.98581 14.5294 3.16375L12.6875 4.84082Z" fill="#E82E28"/>
<path d="M8.83018 3.08389C7.6335 3.08389 6.12573 3.88249 5.80661 4.2219L3.91187 2.44501C5.54733 1.00752 7.29444 0.588257 8.98974 0.588257L8.83018 3.08389Z" fill="#F56B28"/>
<path d="M4.21095 6.85726C4.31068 6.01873 5.06858 4.80086 5.5998 4.38843L3.67245 2.70453C2.7151 3.50313 1.82107 5.24793 1.67798 6.17845L4.21095 6.85726Z" fill="#F4B413"/>
<path d="M4.25092 9.39286C4.07142 8.9137 3.97169 7.45625 4.13125 7.11684L1.60158 6.49792C1.34911 7.89031 1.49854 9.13331 1.73787 10.0118L4.25092 9.39286Z" fill="#B25580"/>
<path d="M5.46756 11.4093C4.82933 10.7904 4.46526 9.96054 4.3706 9.6524L1.89746 10.3711C2.19663 11.3295 2.95453 12.5074 3.49304 13.0465L5.46756 11.4093Z" fill="#982EAC"/>
<path d="M6.04591 14.8433C5.08857 14.424 4.31072 13.865 3.77222 13.3459L5.70685 11.6289C5.9063 11.8485 6.72403 12.3476 7.04315 12.4674L6.04591 14.8433Z" fill="#6253B5"/>
<path d="M9.03763 15.3824C8.16007 15.3824 7.26256 15.3025 6.44482 14.9631L7.40217 12.5873C7.80106 12.747 8.41935 12.8668 8.87808 12.8668L9.03763 15.3824Z" fill="#1E84BF"/>
<path d="M9.49642 15.3624L9.25708 12.8269C9.73575 12.8269 10.4338 12.6272 10.8925 12.4475L11.8299 14.7635C11.1917 15.0829 10.2144 15.2826 9.49642 15.3624Z" fill="#0F9584"/>
<path d="M12.3086 14.5439L11.2316 12.3078C11.6704 12.0682 11.81 11.9884 12.2288 11.6365L14.1634 13.1539C13.5252 13.8127 13.0665 14.1446 12.3086 14.5439Z" fill="#0C9D4E"/>
</svg>
